<svg xmlns="http://www.w3.org/2000/svg" width="1280" height="380" viewBox="0 0 1280 380" role="img" aria-labelledby="title desc">
  <title id="title">Eric Yu / 净志 - 程序员与命理师</title>
  <desc id="desc">把千年命理写成可验证、可复用的代码</desc>
  <rect width="1280" height="380" fill="#f7f4ec"/>
  <rect x="0" y="0" width="18" height="380" fill="#194f45"/>
  <rect x="18" y="0" width="1262" height="12" fill="#9b4421"/>
  <path d="M18 312H1280" stroke="#d8cdb8" stroke-width="1"/>
  <path d="M850 12V380" stroke="#d8cdb8" stroke-width="1"/>
  <g opacity="0.22" fill="#9b4421">
    <circle cx="1104" cy="114" r="92" fill="none" stroke="#9b4421" stroke-width="2"/>
    <circle cx="1104" cy="114" r="63" fill="none" stroke="#9b4421" stroke-width="1"/>
    <circle cx="1104" cy="114" r="7"/>
  </g>
  <g fill="#194f45">
    <rect x="1018" y="76" width="70" height="8" rx="2"/>
    <rect x="1120" y="76" width="70" height="8" rx="2"/>
    <rect x="1018" y="110" width="172" height="8" rx="2"/>
    <rect x="1018" y="144" width="70" height="8" rx="2"/>
    <rect x="1120" y="144" width="70" height="8" rx="2"/>
  </g>
  <text x="78" y="82" fill="#9b4421" font-family="-apple-system, BlinkMacSystemFont, 'Segoe UI', sans-serif" font-size="23" font-weight="650" letter-spacing="0">PROGRAMMER × CHINESE METAPHYSICS PRACTITIONER</text>
  <text x="76" y="164" fill="#172b26" font-family="'Noto Serif SC', 'Songti SC', serif" font-size="62" font-weight="700" letter-spacing="0">Eric Yu / 净志</text>
  <text x="78" y="217" fill="#38564e" font-family="-apple-system, BlinkMacSystemFont, 'PingFang SC', sans-serif" font-size="28" font-weight="500" letter-spacing="0">程序员 × 命理师 × 独立产品开发者</text>
  <text x="78" y="274" fill="#172b26" font-family="'Noto Serif SC', 'Songti SC', serif" font-size="24" letter-spacing="0">把千年命理写成可验证、可复用的代码</text>
  <g transform="translate(886 230)">
    <rect width="332" height="112" rx="6" fill="#172b26"/>
    <circle cx="24" cy="22" r="5" fill="#c96843"/>
    <circle cx="42" cy="22" r="5" fill="#d7a73c"/>
    <circle cx="60" cy="22" r="5" fill="#4b9b7d"/>
    <text x="24" y="57" fill="#b6c9c1" font-family="ui-monospace, SFMono-Regular, Menlo, monospace" font-size="15" letter-spacing="0">rules: explainable</text>
    <text x="24" y="80" fill="#b6c9c1" font-family="ui-monospace, SFMono-Regular, Menlo, monospace" font-size="15" letter-spacing="0">results: reproducible</text>
    <text x="24" y="103" fill="#f0d39a" font-family="ui-monospace, SFMono-Regular, Menlo, monospace" font-size="15" letter-spacing="0">products: running</text>
  </g>
  <text x="78" y="349" fill="#6f756e" font-family="-apple-system, BlinkMacSystemFont, 'PingFang SC', sans-serif" font-size="18" letter-spacing="0">不惑之心 · bushi4xxx · 量化策略工作台</text>
</svg>
